<svg xmlns="http://www.w3.org/2000/svg" width="24" height="24" viewBox="0 0 24 24"><path d="M20 5.5A3.5 3.5 0 0 0 16.5 2h-.2c-1.74.06-3.27 1.26-4.3 3.18l-.14-.25C10.8 3.1 9.24 1.97 7.48 2a3.5 3.5 0 0 0-3.14 5H4a2 2 0 0 0-2 2v2c0 1.1.9 2 2 2v6.18A3 3 0 0 0 7 22h10.18A3 3 0 0 0 20 19v-6a2 2 0 0 0 2-2V9a2 2 0 0 0-2-2h-.34c.22-.45.34-.96.34-1.5ZM16.5 7a1.5 1.5 0 1 0-.02-3c-1.18-.02-2.38 1.1-3.12 3h3.14Zm-5.86 0C9.9 5.1 8.7 3.98 7.5 4a1.5 1.5 0 0 0-.14 3H10.64ZM7.5 9H4v2h7V9H7.5ZM6 19v-6h5v7H6.88A1 1 0 0 1 6 19Zm11 1h-4v-7h5v6.12a1 1 0 0 1-1 .88Zm3-9h-7V9h7v2Z" fill="#aa6e50" fill-rule="evenodd"/></svg>