<svg xmlns="http://www.w3.org/2000/svg" width="36" height="36" viewBox="0 0 36 36">
<path fill="#aa6e50" fill-rule="evenodd" d="M16.9138 7.82715V5.23774C16.9144 5.23356 16.9156 5.22616 16.9181 5.21648C16.9247 5.19046 16.9384 5.15412 16.9662 5.11753C17.0057 5.06556 17.1438 4.91852 17.6121 4.91852C18.0804 4.91852 18.2185 5.06556 18.258 5.11753C18.2858 5.15412 18.2995 5.19046 18.3061 5.21648C18.3085 5.22616 18.3098 5.23356 18.3104 5.23774V7.82716L16.9138 7.82715ZM15.9828 7.82715V5.22469H16.4483C15.9828 5.22469 15.9828 5.22435 15.9828 5.22401L15.9828 5.2233L15.9828 5.22184L15.9828 5.21867L15.9829 5.21139L15.9836 5.19316C15.9843 5.17944 15.9856 5.16253 15.9877 5.14287C15.992 5.10371 15.9999 5.0527 16.0149 4.9937C16.0446 4.87621 16.1037 4.72119 16.2214 4.56642C16.4728 4.23568 16.9166 4 17.6121 4C18.3076 4 18.7514 4.23568 19.0028 4.56642C19.1205 4.72119 19.1795 4.87621 19.2093 4.9937C19.2243 5.0527 19.2322 5.10371 19.2365 5.14287C19.2386 5.16253 19.2398 5.17944 19.2405 5.19316L19.2412 5.21139L19.2414 5.21867L19.2414 5.22184L19.2414 5.2233L19.2414 5.22401C19.2414 5.22435 19.2414 5.22469 18.7759 5.22469H19.2414V7.82715H23.4176C23.6746 7.82715 23.8831 8.03277 23.8831 8.28641V12.2828C25.7913 13.9103 27 16.3173 27 19.0024C27 21.4129 26.0264 23.599 24.446 25.1989L26.4152 30.3795C26.4688 30.5205 26.4489 30.6785 26.3619 30.8023C26.2749 30.9261 26.132 31 25.9793 31H22.4879C22.2975 31 22.1264 30.8857 22.0557 30.7113L20.7386 27.4629C19.8751 27.7347 18.9549 27.8814 18 27.8814C17.0598 27.8814 16.1533 27.7392 15.3014 27.4754L13.9894 30.7113C13.9187 30.8857 13.7475 31 13.5572 31H10.0658C9.91312 31 9.77015 30.9261 9.68318 30.8023C9.59621 30.6785 9.57631 30.5205 9.62992 30.3795L11.5866 25.2317C9.98701 23.629 9 21.4294 9 19.0024C9 16.3173 10.2087 13.9103 12.1169 12.2828V8.28641C12.1169 8.03277 12.3254 7.82715 12.5825 7.82715H15.9828ZM16.4457 8.74567H13.048V11.5872C14.4685 10.6621 16.1709 10.1234 18 10.1234C19.8291 10.1234 21.5315 10.6621 22.952 11.5872V8.74567H18.7785L18.7759 8.74567H16.4483L16.4457 8.74567ZM22.8031 30.0815L21.6098 27.1384C22.3692 26.81 23.0738 26.3812 23.7063 25.869L25.3075 30.0815H22.8031ZM14.4286 27.1549C13.6684 26.8303 12.9625 26.4053 12.3282 25.8968L10.7375 30.0815H13.242L14.4286 27.1549ZM12.8781 12.851C14.2715 11.7204 16.0548 11.042 18 11.042C19.9452 11.042 21.7285 11.7204 23.1219 12.851C24.9221 14.3117 26.069 16.5248 26.069 19.0024C26.069 23.3989 22.4564 26.9629 18 26.9629C13.5436 26.9629 9.93103 23.3989 9.93103 19.0024C9.93103 16.5248 11.0779 14.3117 12.8781 12.851ZM18 23.021C20.2496 23.021 22.0733 21.2218 22.0733 19.0025C22.0733 16.7831 20.2496 14.9839 18 14.9839C15.7504 14.9839 13.9267 16.7831 13.9267 19.0025C13.9267 21.2218 15.7504 23.021 18 23.021ZM18 23.595C20.571 23.595 22.6552 21.5389 22.6552 19.0025C22.6552 16.466 20.571 14.4099 18 14.4099C15.429 14.4099 13.3448 16.466 13.3448 19.0025C13.3448 21.5389 15.429 23.595 18 23.595ZM18.3879 12.879C18.3879 13.0904 18.2143 13.2617 18 13.2617C17.7858 13.2617 17.6121 13.0904 17.6121 12.879C17.6121 12.6676 17.7858 12.4963 18 12.4963C18.2143 12.4963 18.3879 12.6676 18.3879 12.879ZM18.7759 12.879C18.7759 13.3017 18.4285 13.6444 18 13.6444C17.5715 13.6444 17.2242 13.3017 17.2242 12.879C17.2242 12.4563 17.5715 12.1136 18 12.1136C18.4285 12.1136 18.7759 12.4563 18.7759 12.879ZM18 17.8543C17.3573 17.8543 16.8362 18.3683 16.8362 19.0025C16.8362 19.6366 17.3573 20.1506 18 20.1506C18.6427 20.1506 19.1638 19.6366 19.1638 19.0025C19.1638 18.3683 18.6427 17.8543 18 17.8543ZM18 20.5333C18.857 20.5333 19.5517 19.8479 19.5517 19.0025C19.5517 18.157 18.857 17.4716 18 17.4716C17.143 17.4716 16.4483 18.157 16.4483 19.0025C16.4483 19.8479 17.143 20.5333 18 20.5333ZM18.3879 25.1259C18.3879 25.3373 18.2143 25.5086 18 25.5086C17.7858 25.5086 17.6121 25.3373 17.6121 25.1259C17.6121 24.9145 17.7858 24.7432 18 24.7432C18.2143 24.7432 18.3879 24.9145 18.3879 25.1259ZM18.7759 25.1259C18.7759 25.5486 18.4285 25.8913 18 25.8913C17.5715 25.8913 17.2242 25.5486 17.2242 25.1259C17.2242 24.7032 17.5715 24.3605 18 24.3605C18.4285 24.3605 18.7759 24.7032 18.7759 25.1259ZM24.2069 19.3852C24.4212 19.3852 24.5949 19.2138 24.5949 19.0025C24.5949 18.7911 24.4212 18.6197 24.2069 18.6197C23.9927 18.6197 23.819 18.7911 23.819 19.0025C23.819 19.2138 23.9927 19.3852 24.2069 19.3852ZM24.2069 19.7679C24.6354 19.7679 24.9828 19.4252 24.9828 19.0025C24.9828 18.5797 24.6354 18.237 24.2069 18.237C23.7784 18.237 23.4311 18.5797 23.4311 19.0025C23.4311 19.4252 23.7784 19.7679 24.2069 19.7679ZM12.1811 19.0025C12.1811 19.2138 12.0074 19.3852 11.7931 19.3852C11.5789 19.3852 11.4052 19.2138 11.4052 19.0025C11.4052 18.7911 11.5789 18.6197 11.7931 18.6197C12.0074 18.6197 12.1811 18.7911 12.1811 19.0025ZM12.569 19.0025C12.569 19.4252 12.2216 19.7679 11.7931 19.7679C11.3646 19.7679 11.0173 19.4252 11.0173 19.0025C11.0173 18.5797 11.3646 18.237 11.7931 18.237C12.2216 18.237 12.569 18.5797 12.569 19.0025ZM22.1147 14.9432C22.2662 15.0926 22.5118 15.0926 22.6633 14.9432C22.8148 14.7937 22.8148 14.5514 22.6633 14.4019C22.5118 14.2525 22.2662 14.2525 22.1147 14.4019C21.9632 14.5514 21.9632 14.7937 22.1147 14.9432ZM21.8404 15.2138C22.1434 15.5127 22.6346 15.5127 22.9376 15.2138C23.2406 14.9149 23.2406 14.4302 22.9376 14.1313C22.6346 13.8324 22.1434 13.8324 21.8404 14.1313C21.5374 14.4302 21.5374 14.9149 21.8404 15.2138ZM13.8854 23.603C13.7339 23.7525 13.4882 23.7525 13.3367 23.603C13.1852 23.4535 13.1852 23.2112 13.3367 23.0618C13.4882 22.9123 13.7339 22.9123 13.8854 23.0618C14.0369 23.2112 14.0369 23.4535 13.8854 23.603ZM14.1597 23.8736C13.8567 24.1725 13.3654 24.1725 13.0624 23.8736C12.7594 23.5747 12.7594 23.0901 13.0624 22.7911C13.3654 22.4922 13.8567 22.4922 14.1597 22.7911C14.4627 23.0901 14.4627 23.5747 14.1597 23.8736ZM22.1147 23.603C22.2662 23.7525 22.5118 23.7525 22.6633 23.603C22.8148 23.4535 22.8148 23.2112 22.6633 23.0618C22.5118 22.9123 22.2662 22.9123 22.1147 23.0618C21.9632 23.2112 21.9632 23.4535 22.1147 23.603ZM21.8404 23.8736C22.1434 24.1725 22.6346 24.1725 22.9376 23.8736C23.2406 23.5747 23.2406 23.0901 22.9376 22.7911C22.6346 22.4922 22.1434 22.4922 21.8404 22.7911C21.5374 23.0901 21.5374 23.5747 21.8404 23.8736ZM13.8854 14.9431C13.7339 15.0926 13.4882 15.0926 13.3367 14.9431C13.1852 14.7937 13.1852 14.5514 13.3367 14.4019C13.4882 14.2524 13.7339 14.2524 13.8854 14.4019C14.0369 14.5514 14.0369 14.7937 13.8854 14.9431ZM14.1597 15.2138C13.8567 15.5127 13.3654 15.5127 13.0624 15.2138C12.7594 14.9148 12.7594 14.4302 13.0624 14.1313C13.3654 13.8324 13.8567 13.8324 14.1597 14.1313C14.4627 14.4302 14.4627 14.9148 14.1597 15.2138Z"/>
</svg>