<svg xmlns="http://www.w3.org/2000/svg" width="36" height="36" viewBox="0 0 36 36">
<path fill="#aa6e50" fill-rule="evenodd" clip-rule="evenodd" d="M11.9205 16.1477C12.7787 11.9185 16.5176 8.73529 21 8.73529C26.1168 8.73529 30.2647 12.8832 30.2647 18C30.2647 23.1168 26.1168 27.2647 21 27.2647C16.5176 27.2647 12.7787 24.0815 11.9205 19.8523C11.9726 19.2545 12 18.6349 12 18C12 17.3651 11.9726 16.7455 11.9205 16.1477ZM11.5024 13.517C13.1841 9.96041 16.8047 7.5 21 7.5C26.799 7.5 31.5 12.201 31.5 18C31.5 23.799 26.799 28.5 21 28.5C16.8047 28.5 13.1841 26.0396 11.5024 22.483C10.855 25.1825 9.64095 27 8.25 27C6.17893 27 4.5 22.9706 4.5 18C4.5 13.0294 6.17893 9 8.25 9C9.64095 9 10.855 10.8175 11.5024 13.517ZM10.83 15.3782C10.6557 14.0759 10.357 12.9289 9.97857 12.0207C9.6694 11.2786 9.3267 10.7435 8.99728 10.409C8.67133 10.0782 8.41941 10 8.25 10C8.08059 10 7.82867 10.0782 7.50272 10.409C7.1733 10.7435 6.8306 11.2786 6.52143 12.0207C5.9049 13.5003 5.5 15.6137 5.5 18C5.5 20.3863 5.9049 22.4997 6.52143 23.9793C6.8306 24.7214 7.1733 25.2565 7.50272 25.591C7.82867 25.9218 8.08059 26 8.25 26C8.41941 26 8.67133 25.9218 8.99728 25.591C9.3267 25.2565 9.6694 24.7214 9.97857 23.9793C10.357 23.0711 10.6557 21.9241 10.83 20.6218C10.6146 19.7837 10.5 18.9053 10.5 18C10.5 17.0947 10.6146 16.2163 10.83 15.3782ZM17.5601 13.2891C17.6766 13.4603 17.6322 13.6936 17.4609 13.8101L13.8149 16.29C13.6437 16.4065 13.4104 16.3621 13.294 16.1909C13.1775 16.0196 13.2219 15.7864 13.3931 15.6699L17.0391 13.1899C17.2104 13.0735 17.4436 13.1178 17.5601 13.2891ZM14.8706 16.898C14.6762 16.9695 14.5766 17.185 14.648 17.3794C14.7195 17.5738 14.935 17.6734 15.1294 17.602L17.6262 16.6843C17.8206 16.6128 17.9203 16.3973 17.8489 16.2029C17.7774 16.0085 17.5619 15.9089 17.3675 15.9803L14.8706 16.898ZM17.5601 22.7109C17.6766 22.5397 17.6322 22.3064 17.4609 22.1899L13.8149 19.71C13.6437 19.5935 13.4104 19.6379 13.294 19.8091C13.1775 19.9804 13.2219 20.2136 13.3931 20.3301L17.0391 22.8101C17.2104 22.9265 17.4436 22.8822 17.5601 22.7109ZM14.8706 19.102C14.6762 19.0305 14.5766 18.815 14.648 18.6206C14.7195 18.4262 14.935 18.3266 15.1294 18.398L17.6262 19.3157C17.8206 19.3872 17.9203 19.6027 17.8489 19.7971C17.7774 19.9915 17.5619 20.0911 17.3675 20.0197L14.8706 19.102Z"/>
</svg>