<svg xmlns="http://www.w3.org/2000/svg" width="36" height="36" viewBox="0 0 36 36">
<path fill="#aa6e50" d="M17.0426 15.6213C17.1601 15.6194 17.2776 15.6187 17.395 15.619L17.7959 15.6164V12.8748H16.3345C16.1274 12.8748 15.9595 12.7069 15.9595 12.4998C15.9595 12.2927 16.1274 12.1248 16.3345 12.1248H18.1709H20.0844C20.2915 12.1248 20.4594 12.2927 20.4594 12.4998C20.4594 12.7069 20.2915 12.8748 20.0844 12.8748H18.5459V15.6114L19.0877 15.6078C19.1734 15.6082 19.2591 15.6098 19.3448 15.612C19.4401 15.6142 19.474 15.5739 19.4725 15.4803L19.4721 15.4596V15.4595V15.4595C19.47 15.3331 19.468 15.2061 19.4759 15.08C19.4907 14.8429 19.5893 14.7102 19.8122 14.7022C20.2423 14.6865 20.6737 14.691 21.1038 14.706C21.2823 14.7124 21.3862 14.8451 21.4001 15.0345C21.4109 15.1835 21.4105 15.3335 21.4093 15.4828C21.4084 15.5905 21.4497 15.6344 21.5561 15.6341C21.8828 15.6332 22.2096 15.6344 22.5364 15.6356C23.1603 15.6379 23.7841 15.6402 24.4077 15.628C25.1381 15.6136 25.5889 15.0989 25.5882 14.3346L25.588 14.1191C25.587 13.083 25.584 9.94039 25.5916 9.29556C25.5926 9.23339 25.599 9.16994 25.6092 9.10713L25.6097 8.99255C25.6102 8.8687 25.6107 8.74254 25.6107 8.61264C25.557 8.61264 25.5067 8.61306 25.4587 8.61346C25.3614 8.61427 25.2736 8.61501 25.1859 8.612C24.9065 8.60239 24.8088 8.5133 24.803 8.2284C24.7943 7.81243 24.7962 7.39582 24.8039 6.97986C24.8082 6.73886 24.9167 6.63471 25.1498 6.62157C25.2492 6.61595 25.349 6.61688 25.4487 6.61782L25.4735 6.61805C25.5562 6.61869 25.591 6.58568 25.5892 6.49338C25.5839 6.22163 25.5852 5.94955 25.5885 5.67779L25.5888 5.66079C25.5902 5.55467 25.5916 5.4464 25.6144 5.34418C25.6699 5.09678 25.7976 5.00064 26.0421 5.00064C26.967 5 27.892 5 28.8169 5C29.1117 5 29.2853 5.1785 29.289 5.49544C29.293 5.81559 29.2948 6.13606 29.2856 6.45589C29.2819 6.58664 29.3278 6.62702 29.445 6.61997C29.946 6.58952 29.9855 6.7661 29.9962 7.1872C30.0052 7.52818 29.9975 7.87044 29.9802 8.2111C29.9651 8.50304 29.8668 8.5963 29.5887 8.62001C29.5279 8.62514 29.4666 8.624 29.395 8.62267C29.3591 8.62201 29.3206 8.6213 29.2782 8.6213L29.2781 8.91342C29.2779 9.14846 29.2778 9.37527 29.2785 9.60225C29.2795 9.9417 29.2812 10.2812 29.2828 10.6206L29.2828 10.6215C29.2861 11.2803 29.2893 11.9391 29.288 12.598C29.2878 12.7604 29.2885 12.9229 29.2892 13.0855V13.0856V13.0857V13.0857C29.2915 13.6446 29.2939 14.2039 29.2569 14.7599C29.1459 16.4321 28.393 17.7329 27.0697 18.6866C26.4534 19.1307 25.7732 19.3977 25.0357 19.5041C24.7367 19.547 24.4321 19.5579 24.1296 19.5602C23.287 19.5666 22.4443 19.564 21.6017 19.557C21.4515 19.5557 21.3988 19.6089 21.4093 19.7605C21.4179 19.8826 21.4167 20.0066 21.4062 20.1287C21.3846 20.3819 21.2619 20.5097 21.0187 20.5148C20.6388 20.5229 20.2584 20.5225 19.8782 20.5152C19.6168 20.51 19.4866 20.3694 19.4728 20.0938C19.4679 19.9985 19.4691 19.903 19.4703 19.8075V19.8074V19.8074V19.8074C19.4707 19.7747 19.4711 19.7419 19.4712 19.7092C19.4715 19.6227 19.4342 19.5848 19.3491 19.5848C18.5783 19.5861 17.8075 19.5864 17.0368 19.5845C16.9433 19.5842 16.9073 19.6262 16.9082 19.7188L16.9091 19.7924V19.7925C16.9107 19.9122 16.9124 20.032 16.9057 20.1511C16.8934 20.3703 16.8034 20.4937 16.5993 20.5014C16.1636 20.5181 15.7267 20.5148 15.2904 20.504C15.1301 20.5001 15.0241 20.387 15.0034 20.2187C14.9849 20.0662 14.9766 19.9101 14.9834 19.7566C14.9898 19.6127 14.9297 19.5653 14.8039 19.5659C14.6924 19.5664 14.5809 19.5653 14.4693 19.5642H14.4693H14.4693C14.3701 19.5632 14.271 19.5623 14.1719 19.5624C13.954 19.5628 13.7361 19.5627 13.5182 19.5627C12.9191 19.5626 12.32 19.5626 11.7211 19.5701C11.3202 19.5752 10.9604 19.6993 10.715 20.0595C10.5621 20.2841 10.4906 20.5398 10.4903 20.8126C10.4884 22.7565 10.489 24.7008 10.4903 26.6448C10.4906 26.8765 10.5103 26.8941 10.7375 26.906C11.0887 26.9242 11.1753 26.9999 11.1898 27.3652C11.2046 27.7385 11.2022 28.1128 11.1938 28.4865C11.1874 28.7714 11.0872 28.8637 10.7878 28.9028C10.489 28.9419 10.489 28.9419 10.4893 29.2543L10.4893 29.2553L10.4896 29.4505C10.49 29.6365 10.4905 29.8225 10.4875 30.0084C10.4819 30.3616 10.3749 30.4776 10.0358 30.4939C9.91648 30.4997 9.79699 30.499 9.67745 30.4982C9.63761 30.498 9.59776 30.4978 9.55791 30.4978C8.87961 30.4978 8.20131 30.4978 7.52302 30.4968C7.39969 30.4968 7.27605 30.4958 7.15334 30.4865C6.93845 30.4702 6.81265 30.3417 6.8068 30.1167C6.79785 29.77 6.79693 29.4226 6.80125 29.0755C6.80279 28.9499 6.76116 28.9038 6.64061 28.9086C6.54855 28.9122 6.45565 28.9043 6.36312 28.8963L6.36309 28.8963L6.30239 28.8913C6.13497 28.8781 6.01165 28.7752 6.00764 28.6009C5.99715 28.1321 5.99746 27.6626 6.00856 27.1937C6.01226 27.03 6.13066 26.9393 6.28389 26.9181C6.39057 26.9034 6.49971 26.8963 6.6067 26.9034C6.75222 26.913 6.80433 26.8604 6.80279 26.7034C6.79631 26.0785 6.79847 25.4536 6.80433 24.8287C6.80464 24.7995 6.8068 24.7694 6.8105 24.7396C6.8108 23.7628 6.81512 21.2407 6.83054 20.6501C6.84626 20.0434 6.95633 19.4525 7.16198 18.8833C7.53011 17.8636 8.16123 17.0679 9.05011 16.491C9.50118 16.1985 9.97321 15.9559 10.4869 15.8072C10.9401 15.6758 11.4035 15.6296 11.8728 15.6306C12.2576 15.6313 12.6425 15.6311 13.0274 15.6309C13.6239 15.6305 14.2204 15.6302 14.8169 15.6335C14.9587 15.6344 14.9911 15.5873 14.9812 15.4479C14.971 15.3002 14.9843 15.1492 14.9997 15.0012C15.0173 14.832 15.1218 14.7121 15.2781 14.7067C15.7187 14.6916 16.1605 14.6855 16.6005 14.707C16.8182 14.7176 16.8962 14.8429 16.9054 15.0739C16.9107 15.2072 16.91 15.3412 16.9079 15.4745C16.9063 15.5726 16.9412 15.6229 17.0426 15.6213ZM8.90645 29.7379H8.90651H8.90656C9.13865 29.7371 9.37063 29.7362 9.60261 29.7408C9.72594 29.7434 9.76726 29.6927 9.76294 29.5707C9.75739 29.4053 9.75955 29.2396 9.76201 29.0742C9.76356 28.9669 9.71577 28.9175 9.61371 28.9175C8.96132 28.9175 8.30922 28.9169 7.65713 28.9159C7.57019 28.9159 7.52332 28.9493 7.52548 29.0483C7.52918 29.2245 7.52949 29.4008 7.52517 29.5767C7.52209 29.7017 7.5742 29.7443 7.69228 29.7421C7.91603 29.738 8.13978 29.7388 8.36353 29.7395C8.45303 29.7399 8.54253 29.7402 8.63203 29.7402V29.7386C8.72353 29.7386 8.815 29.7382 8.90645 29.7379ZM10.4729 27.8653C10.4725 27.8506 10.4721 27.836 10.4736 27.8215C10.4875 27.6924 10.4277 27.6587 10.3102 27.66C9.88341 27.6636 9.45661 27.6631 9.02981 27.6626C8.88129 27.6624 8.73277 27.6623 8.58424 27.6623V27.6594L8.14884 27.6597H8.14881H8.14878C7.71348 27.6601 7.27826 27.6605 6.84287 27.6571C6.75592 27.6565 6.72447 27.6882 6.71183 27.7712C6.66374 28.0862 6.71553 28.1548 7.01368 28.1548C8.08199 28.1548 9.15062 28.1545 10.2189 28.1542C10.473 28.1539 10.473 28.1535 10.4733 27.8856C10.4733 27.8788 10.4731 27.8721 10.4729 27.8653V27.8653ZM14.7315 18.8327C14.971 18.8317 14.9716 18.8298 14.972 18.5866C14.9726 17.9296 14.9729 17.2727 14.9723 16.6157C14.972 16.3904 14.9633 16.3814 14.746 16.3814C14.498 16.3814 14.2501 16.3813 14.0021 16.3811H14.0021H14.0021C13.2582 16.3806 12.5144 16.3802 11.7707 16.384C10.7237 16.3895 9.78791 16.7445 8.99492 17.4438C8.23954 18.1101 7.77923 18.9753 7.59732 19.9931C7.49014 20.5923 7.49954 22.4843 7.50593 23.7709C7.50823 24.2349 7.51014 24.6201 7.50606 24.8376C7.50575 24.855 7.50544 24.8723 7.50544 24.8896C7.50815 25.0475 7.5085 25.2056 7.50885 25.3636L7.50914 25.4821L7.50987 25.6922C7.51111 26.0282 7.51235 26.3641 7.50853 26.6999C7.50668 26.8393 7.55816 26.8845 7.69105 26.8832C8.11731 26.8795 8.54358 26.8801 8.96984 26.8806C9.17563 26.8809 9.38141 26.8812 9.5872 26.881C9.77157 26.8806 9.7836 26.8656 9.7836 26.6659L9.78295 24.738V24.7379V24.7379C9.7826 23.4525 9.78226 22.1671 9.78082 20.8818C9.78021 20.2639 9.95872 19.7239 10.4172 19.3121C10.7462 19.0167 11.1368 18.8507 11.5715 18.8452C12.2871 18.8365 13.0027 18.8356 13.7184 18.8348H13.7184H13.7187C14.0563 18.8343 14.3939 18.8339 14.7315 18.8327ZM16.1812 19.5515V17.6136H16.1818C16.1818 16.973 16.1818 16.3324 16.1815 15.6921C16.1818 15.4316 16.1818 15.4316 15.9284 15.4319H15.9283C15.7079 15.4322 15.7061 15.4322 15.7061 15.6623C15.7058 16.8669 15.7061 18.0711 15.7064 19.2756L15.7064 19.2817L15.7064 19.399C15.7065 19.4773 15.7066 19.5557 15.7064 19.6339C15.7061 19.7265 15.748 19.772 15.8386 19.7678C15.8688 19.7664 15.899 19.767 15.9291 19.7675C15.9452 19.7678 15.9613 19.7682 15.9774 19.7682C16.1799 19.7675 16.1812 19.7659 16.1812 19.5515ZM17.0926 18.8157C17.8264 18.8109 18.5602 18.8096 19.2939 18.8144C19.4191 18.8154 19.4518 18.7689 19.4512 18.6468C19.4469 17.9533 19.4456 17.2598 19.4512 16.5667C19.4524 16.4202 19.3963 16.3859 19.2684 16.3882C19.0107 16.3928 18.7531 16.3919 18.4954 16.3911H18.4953C18.3938 16.3907 18.2923 16.3904 18.1908 16.3904L17.8953 16.3906C17.6243 16.3908 17.3533 16.3911 17.0824 16.3895C16.9788 16.3888 16.9227 16.4138 16.9236 16.542C16.9288 17.2406 16.9288 17.9392 16.9248 18.6379C16.9239 18.768 16.9637 18.8167 17.0926 18.8157ZM20.3979 19.7702H20.3979C20.4241 19.771 20.4537 19.7718 20.4871 19.7733C20.6505 19.7803 20.6848 19.7153 20.6826 19.5602C20.6777 19.0856 20.6785 18.6109 20.6792 18.1363V18.1361V18.1361V18.1361C20.6795 17.9598 20.6798 17.7835 20.6798 17.6072H20.6792L20.6792 17.1383C20.6791 16.6703 20.6791 16.2024 20.6795 15.7344L20.6795 15.7306C20.6797 15.5914 20.6798 15.5224 20.6453 15.4883C20.6114 15.4546 20.5442 15.4546 20.411 15.4546C20.2004 15.4546 20.1998 15.4546 20.1998 15.6742L20.1997 16.9384C20.1997 17.7817 20.1997 18.625 20.1989 19.4682L20.1985 19.535C20.1977 19.6548 20.1973 19.712 20.2258 19.7402C20.2518 19.766 20.3019 19.7674 20.3979 19.7702ZM26.4595 5.77105C26.3649 5.76977 26.3294 5.80694 26.3307 5.90148C26.3328 6.08286 26.3334 6.26457 26.33 6.44595C26.3282 6.54626 26.3664 6.59401 26.4651 6.59401C27.1227 6.59305 27.7804 6.59337 28.438 6.59401C28.5287 6.59433 28.5684 6.54947 28.5678 6.45685C28.5676 6.41728 28.5671 6.37768 28.5666 6.33806C28.5649 6.2121 28.5632 6.08599 28.5712 5.96044C28.5805 5.81239 28.5228 5.75823 28.3853 5.75983C28.1593 5.76279 27.9331 5.76219 27.7069 5.7616C27.6144 5.76136 27.522 5.76111 27.4295 5.76111V5.77265C27.3385 5.77265 27.2476 5.77288 27.1567 5.77311L27.1566 5.77311C26.9243 5.77369 26.692 5.77427 26.4595 5.77105ZM28.4747 15.2665C28.5324 14.9647 28.5641 14.6525 28.5657 14.3449C28.5713 13.1796 28.5717 12.0145 28.572 10.8494C28.5722 10.1721 28.5724 9.49474 28.5737 8.81742C28.5737 8.68923 28.5388 8.6354 28.4078 8.63636C27.7656 8.64116 27.123 8.64148 26.4808 8.637C26.3452 8.63604 26.3008 8.68923 26.3032 8.82607C26.3082 9.10809 26.3078 9.3901 26.3048 9.67211C26.305 10.1694 26.3051 10.9065 26.3051 11.6526V11.6672C26.3052 12.789 26.3053 13.9278 26.306 14.299C26.3066 14.6682 26.2372 15.0195 26.072 15.3486C25.7624 15.9645 25.2525 16.3081 24.6075 16.3459C23.9825 16.3827 23.3552 16.3814 22.728 16.3802H22.7279C22.461 16.3796 22.194 16.3791 21.9273 16.3814C21.8991 16.3817 21.8709 16.3823 21.8426 16.3829H21.8426C21.7627 16.3847 21.6828 16.3865 21.6035 16.3798C21.4682 16.3686 21.425 16.4234 21.4263 16.5635C21.4318 17.2525 21.4309 17.9415 21.4272 18.6305C21.4263 18.7641 21.4704 18.8333 21.6026 18.8311C21.9326 18.8257 22.263 18.8264 22.5933 18.827C23.3222 18.8284 24.0509 18.8299 24.7746 18.7664C26.6439 18.6026 28.1032 17.2089 28.4747 15.2665ZM29.2511 7.83869C29.2773 7.81121 29.2774 7.75887 29.2777 7.65962V7.65955C29.2778 7.62489 29.2779 7.58451 29.2791 7.53747C29.2822 7.41345 29.2415 7.37083 29.1188 7.37211C28.6951 7.37636 28.2712 7.37574 27.8475 7.37512H27.8474H27.8474H27.8474H27.8473C27.696 7.37489 27.5447 7.37467 27.3934 7.37467V7.37179L27.0301 7.37167C26.576 7.37146 26.122 7.37125 25.6681 7.37403C25.6178 7.37435 25.526 7.40063 25.5238 7.42242C25.5112 7.55317 25.501 7.69097 25.5312 7.81532C25.5401 7.85153 25.6835 7.86723 25.7655 7.86755C26.3916 7.86906 27.0177 7.86869 27.6438 7.86832C28.0857 7.86806 28.5276 7.8678 28.9696 7.86819L29.0294 7.86841C29.1601 7.86906 29.2219 7.86937 29.2511 7.83869ZM17.9221 21.8671L18.2502 21.4996L18.5783 21.8671C18.9792 22.332 19.3546 22.8183 19.7027 23.3239C20.267 24.1464 20.8751 25.1308 20.8751 26.0757C20.8751 26.7719 20.5986 27.4396 20.1063 27.9318C19.614 28.4241 18.9464 28.7007 18.2502 28.7007C17.554 28.7007 16.8864 28.4241 16.3941 27.9318C15.9018 27.4396 15.6253 26.7719 15.6253 26.0757C15.6253 25.1308 16.2334 24.1464 16.7977 23.3239C17.3621 22.5014 17.9221 21.8671 17.9221 21.8671ZM18.328 22.9602C18.3021 22.9299 18.2763 22.8998 18.2502 22.8689C18.2242 22.8997 18.1985 22.9297 18.1727 22.9599L18.1723 22.9603C18.0067 23.1538 17.8329 23.3569 17.5152 23.8183C16.9859 24.5883 16.5002 25.5682 16.5002 26.0757C16.5002 27.047 17.279 27.8257 18.2502 27.8257C19.2214 27.8257 20.0002 27.047 20.0002 26.0757C20.0002 25.5682 19.5145 24.5883 18.9852 23.8183C18.6675 23.3569 18.4937 23.1538 18.3281 22.9603L18.328 22.9602Z"/>
</svg>