<svg xmlns="http://www.w3.org/2000/svg" width="36" height="36" viewBox="0 0 36 36">
<path fill="#aa6e50" fill-rule="evenodd" clip-rule="evenodd" d="M29.2171 19.0434C29.7335 18.5738 29.8444 18.218 29.8444 18C29.8444 17.782 29.7335 17.4262 29.2171 16.9566C28.703 16.4891 27.8924 16.0134 26.791 15.5898C25.0952 14.9375 22.8531 14.4632 20.3108 14.2815C20.3727 14.3475 20.4074 14.4216 20.4074 14.5C20.4074 14.7761 19.9763 15 19.4444 15C18.9126 15 18.4815 14.7761 18.4815 14.5C18.4815 14.3904 18.5494 14.289 18.6646 14.2066C18.4447 14.2022 18.2231 14.2 18 14.2C16.8162 14.2 15.6763 14.2628 14.6012 14.3788C14.6198 14.4176 14.6296 14.4582 14.6296 14.5C14.6296 14.7761 14.1985 15 13.6667 15C13.2301 15 12.8614 14.8492 12.7433 14.6424C12.1385 14.75 11.5625 14.8752 11.02 15.016C11.4346 15.0717 11.7407 15.2673 11.7407 15.5C11.7407 15.7761 11.3096 16 10.7778 16C10.2459 16 9.81482 15.7761 9.81482 15.5C9.81482 15.4511 9.82833 15.4039 9.85351 15.3592C9.63083 15.4333 9.41583 15.5102 9.20895 15.5898C8.84242 15.7307 8.50809 15.8775 8.20617 16.0278C8.58212 16.0959 8.85185 16.2816 8.85185 16.5C8.85185 16.7761 8.42072 17 7.88889 17C7.52384 17 7.20624 16.8945 7.04294 16.7391C6.94916 16.8116 6.86246 16.8842 6.78287 16.9566C6.26647 17.4262 6.15556 17.782 6.15556 18C6.15556 18.218 6.26647 18.5738 6.78287 19.0434C7.297 19.5109 8.10758 19.9866 9.20895 20.4102C10.9048 21.0625 13.1469 21.5368 15.6892 21.7185C15.6273 21.6525 15.5926 21.5784 15.5926 21.5C15.5926 21.2239 16.0237 21 16.5556 21C17.0874 21 17.5185 21.2239 17.5185 21.5C17.5185 21.6096 17.4506 21.711 17.3354 21.7934C17.5553 21.7978 17.7769 21.8 18 21.8C19.1838 21.8 20.3237 21.7372 21.3988 21.6212C21.3802 21.5824 21.3704 21.5418 21.3704 21.5C21.3704 21.2239 21.8015 21 22.3333 21C22.7699 21 23.1386 21.1508 23.2567 21.3576C23.8615 21.25 24.4375 21.1248 24.98 20.984C24.5654 20.9283 24.2593 20.7327 24.2593 20.5C24.2593 20.2239 24.6904 20 25.2222 20C25.7541 20 26.1852 20.2239 26.1852 20.5C26.1852 20.5489 26.1717 20.5961 26.1465 20.6408C26.3692 20.5667 26.5842 20.4898 26.791 20.4102C27.1576 20.2693 27.4919 20.1225 27.7938 19.9722C27.4179 19.9041 27.1481 19.7184 27.1481 19.5C27.1481 19.2239 27.5793 19 28.1111 19C28.4762 19 28.7938 19.1055 28.9571 19.2609C29.0508 19.1884 29.1375 19.1158 29.2171 19.0434ZM18 23C25.1797 23 31 20.7614 31 18C31 15.2386 25.1797 13 18 13C10.8203 13 5 15.2386 5 18C5 20.7614 10.8203 23 18 23ZM7.88889 19C8.42072 19 8.85185 18.7761 8.85185 18.5C8.85185 18.2239 8.42072 18 7.88889 18C7.35706 18 6.92593 18.2239 6.92593 18.5C6.92593 18.7761 7.35706 19 7.88889 19ZM11.7407 17.5C11.7407 17.7761 11.3096 18 10.7778 18C10.2459 18 9.81482 17.7761 9.81482 17.5C9.81482 17.2239 10.2459 17 10.7778 17C11.3096 17 11.7407 17.2239 11.7407 17.5ZM11.7407 19.5C11.7407 19.7761 11.3096 20 10.7778 20C10.2459 20 9.81482 19.7761 9.81482 19.5C9.81482 19.2239 10.2459 19 10.7778 19C11.3096 19 11.7407 19.2239 11.7407 19.5ZM13.6667 19C14.1985 19 14.6296 18.7761 14.6296 18.5C14.6296 18.2239 14.1985 18 13.6667 18C13.1348 18 12.7037 18.2239 12.7037 18.5C12.7037 18.7761 13.1348 19 13.6667 19ZM14.6296 16.5C14.6296 16.7761 14.1985 17 13.6667 17C13.1348 17 12.7037 16.7761 12.7037 16.5C12.7037 16.2239 13.1348 16 13.6667 16C14.1985 16 14.6296 16.2239 14.6296 16.5ZM17.5185 15.5C17.5185 15.7761 17.0874 16 16.5556 16C16.0237 16 15.5926 15.7761 15.5926 15.5C15.5926 15.2239 16.0237 15 16.5556 15C17.0874 15 17.5185 15.2239 17.5185 15.5ZM20.4074 16.5C20.4074 16.7761 19.9763 17 19.4444 17C18.9126 17 18.4815 16.7761 18.4815 16.5C18.4815 16.2239 18.9126 16 19.4444 16C19.9763 16 20.4074 16.2239 20.4074 16.5ZM19.4444 19C19.9763 19 20.4074 18.7761 20.4074 18.5C20.4074 18.2239 19.9763 18 19.4444 18C18.9126 18 18.4815 18.2239 18.4815 18.5C18.4815 18.7761 18.9126 19 19.4444 19ZM20.4074 20.5C20.4074 20.7761 19.9763 21 19.4444 21C18.9126 21 18.4815 20.7761 18.4815 20.5C18.4815 20.2239 18.9126 20 19.4444 20C19.9763 20 20.4074 20.2239 20.4074 20.5ZM22.3333 20C22.8652 20 23.2963 19.7761 23.2963 19.5C23.2963 19.2239 22.8652 19 22.3333 19C21.8015 19 21.3704 19.2239 21.3704 19.5C21.3704 19.7761 21.8015 20 22.3333 20ZM23.2963 17.5C23.2963 17.7761 22.8652 18 22.3333 18C21.8015 18 21.3704 17.7761 21.3704 17.5C21.3704 17.2239 21.8015 17 22.3333 17C22.8652 17 23.2963 17.2239 23.2963 17.5ZM22.3333 16C22.8652 16 23.2963 15.7761 23.2963 15.5C23.2963 15.2239 22.8652 15 22.3333 15C21.8015 15 21.3704 15.2239 21.3704 15.5C21.3704 15.7761 21.8015 16 22.3333 16ZM26.1852 16.5C26.1852 16.7761 25.7541 17 25.2222 17C24.6904 17 24.2593 16.7761 24.2593 16.5C24.2593 16.2239 24.6904 16 25.2222 16C25.7541 16 26.1852 16.2239 26.1852 16.5ZM25.2222 19C25.7541 19 26.1852 18.7761 26.1852 18.5C26.1852 18.2239 25.7541 18 25.2222 18C24.6904 18 24.2593 18.2239 24.2593 18.5C24.2593 18.7761 24.6904 19 25.2222 19ZM28.1111 18C28.6429 18 29.0741 17.7761 29.0741 17.5C29.0741 17.2239 28.6429 17 28.1111 17C27.5793 17 27.1481 17.2239 27.1481 17.5C27.1481 17.7761 27.5793 18 28.1111 18ZM17.5185 17.5C17.5185 17.7761 17.0874 18 16.5556 18C16.0237 18 15.5926 17.7761 15.5926 17.5C15.5926 17.2239 16.0237 17 16.5556 17C17.0874 17 17.5185 17.2239 17.5185 17.5ZM16.5556 20C17.0874 20 17.5185 19.7761 17.5185 19.5C17.5185 19.2239 17.0874 19 16.5556 19C16.0237 19 15.5926 19.2239 15.5926 19.5C15.5926 19.7761 16.0237 20 16.5556 20ZM13.6667 21C14.1985 21 14.6296 20.7761 14.6296 20.5C14.6296 20.2239 14.1985 20 13.6667 20C13.1348 20 12.7037 20.2239 12.7037 20.5C12.7037 20.7761 13.1348 21 13.6667 21Z"/>
<path fill="#aa6e50" fill-rule="evenodd" clip-rule="evenodd" d="M18.3043 26.7108L18.3043 30.2929C18.3043 30.569 18.0804 30.7929 17.8043 30.7929C17.5282 30.7929 17.3043 30.569 17.3043 30.2929L17.3043 26.6957L16.8536 27.1464C16.6583 27.3417 16.3417 27.3417 16.1464 27.1464C15.9512 26.9512 15.9512 26.6346 16.1464 26.4393L17.4393 25.1464C17.538 25.0478 17.6675 24.999 17.7968 25C17.926 24.999 18.0556 25.0478 18.1542 25.1464L19.4471 26.4393C19.6424 26.6346 19.6424 26.9512 19.4471 27.1464C19.2518 27.3417 18.9352 27.3417 18.74 27.1464L18.3043 26.7108Z"/>
<path fill="#aa6e50" fill-rule="evenodd" clip-rule="evenodd" d="M18.3043 6.71077L18.3043 10.2929C18.3043 10.569 18.0804 10.7929 17.8043 10.7929C17.5282 10.7929 17.3043 10.569 17.3043 10.2929L17.3043 6.69569L16.8536 7.14645C16.6583 7.34171 16.3417 7.34171 16.1464 7.14645C15.9512 6.95118 15.9512 6.6346 16.1464 6.43934L17.4393 5.14645C17.538 5.04783 17.6675 4.99902 17.7968 5.00001C17.926 4.99902 18.0556 5.04783 18.1542 5.14645L19.4471 6.43934C19.6424 6.6346 19.6424 6.95118 19.4471 7.14645C19.2518 7.34171 18.9352 7.34171 18.74 7.14645L18.3043 6.71077Z"/>
</svg>