<svg xmlns="http://www.w3.org/2000/svg" width="148" height="28"><path fill="#53565a" d="M54.6 3.3h-9v20.9h9c6.4 0 9.5-4.5 9.5-10.6 0-7-4.1-10.3-9.5-10.3m-.3 17h-4.1V7.1h3.3c4.6 0 6 2.7 6 6.9 0 4.6-2.6 6.3-5.2 6.3M13 3.3H4v20.9h9c6.4 0 9.5-4.5 9.5-10.6 0-6.9-4-10.3-9.5-10.3m-.3 17H8.6V7.1h3.3c4.6 0 6 2.7 6 6.9 0 4.6-2.6 6.3-5.2 6.3M31.1 8.6c-4.6 0-7.8 3.4-7.8 8s3 8 7.8 8c3.3.2 6.3-1.9 7.1-5.1h-3.7c-.6 1.3-1.9 2.1-3.3 2-2.3 0-3.6-1.2-3.7-3.8h11c.3-4.7-2.2-9-7.4-9.1zM27.6 15c0-1.8 1.5-3.3 3.3-3.3h.2c2 0 2.9 1.1 3.3 3.2l-6.8.1zm38.2-6H70v15.1h-4.2zm13.3-.4c-4.6 0-7.8 3.4-7.8 8s3 8 7.8 8c3.3.2 6.3-1.9 7.1-5.1h-3.7c-.6 1.3-1.9 2.1-3.3 2-2.3 0-3.6-1.2-3.7-3.8h10.9c.4-4.7-2.1-9-7.3-9.1zM75.5 15c0-1.8 1.5-3.3 3.3-3.3h.2c2 0 2.9 1.1 3.3 3.2l-6.8.1zM65.8 3.3H70v3.4h-4.2zm54.9 18.1c-2.6 0-3.5-2.6-3.5-4.8 0-2.2.9-4.9 3.5-4.9 1.6-.1 3 1 3.1 2.6h4.1c-.3-3.9-3.6-5.7-7.1-5.7-4.9 0-7.7 3.5-7.7 8.2-.2 4.1 2.9 7.5 6.9 7.8h.7c4 0 6.8-2.2 7.3-6.2h-4c0 1.7-1.5 3.1-3.3 3M107.3 9h4.2v15.1h-4.2zm0-5.7h4.2v3.4h-4.2zm30.6 5.3c-1.8 0-3.5 1-4.4 2.5h-.1V3.3h-4.2v20.9h4.2v-7.9c0-3.1 1-4.3 3.2-4.3 1.9 0 2.7 1.2 2.7 3.7v8.5h4.2v-9.3c0-3.8-1.1-6.3-5.6-6.3m-46-5.3h-4.2v17.2c0 3 2.2 3.6 4.8 3.6.8 0 1.6 0 2.4-.1v-3.2c-.4.1-.9.1-1.3.1-1.4 0-1.8-.4-1.8-1.8v-7.5h3V8.8h-3V3.3h.1zm8.4 8.4l-.1-2.8h-4V24h4.2v-6.8c0-2.7 1.1-4.9 4.1-4.9.5 0 1 0 1.5.1V8.6c-.3-.1-.6-.1-.9-.1-2.1 0-4 1.2-4.8 3.2"/></svg>