<svg xmlns="http://www.w3.org/2000/svg" width="560" height="580" viewBox="0 0 56 58"><defs><linearGradient id="a"><stop offset="0%" stop-color="#C27B59"/><stop offset="32%" stop-color="#DB9267"/><stop offset="100%" stop-color="#8B563D"/></linearGradient></defs><rect width="38" height="38" x="9" y="10" fill="#272727" rx="3" transform="rotate(-45 28 29)"/><path fill="url(#a)" d="M26.294 9.686L8.708 27.272A2.46 2.46 0 008 29c0 .61.303 1.321.708 1.728l17.586 17.586c.91.915 2.426.915 3.437 0l17.587-17.586c.91-.915.91-2.44 0-3.456L29.63 9.686a2.37 2.37 0 00-3.336 0zM13.862 23.612l13.14-13.214c.505-.61 1.415-.61 2.021 0L43.275 24.73l-7.884-4.168c-.404-.305-.606 0-.303.305 1.213 1.728 1.92 3.761 1.82 5.896 0 .305-.203.508-.405.305-1.314-4.778-6.267-7.624-11.118-6.303-4.043 1.118-6.772 4.981-6.57 9.149 0 .102-.202.203-.303.203 0 0-.101 0-.101-.101l-4.549-4.575c-.606-.406-.606-1.321 0-1.83-.1 0-.1 0 0 0zm21.024 5.896c0 3.965-3.134 7.218-7.076 7.218-3.941 0-7.176-3.152-7.176-7.116 0-3.965 3.134-7.217 7.075-7.217 3.942 0 7.177 3.15 7.177 7.115zm-24.46-2.541c.505-.61 1.415-.61 2.021 0l8.49 8.539c1.719 1.931 4.246 3.05 6.772 3.05 3.235 0 6.166-1.729 7.884-4.473 2.931-4.27 6.873-8.336 8.794-8.133l2.021 2.033c.505.509.505 1.424 0 1.932L28.922 47.602c-.505.61-1.415.61-2.021 0L9.415 30.017c-.606-.509-.606-1.424 0-2.034l1.01-1.016z"/></svg>