<svg xmlns="http://www.w3.org/2000/svg" xmlns:xlink="http://www.w3.org/1999/xlink" width="300" height="300" viewBox="0 0 300 300">
<defs>
	<g id="ico">
		<path d="M21.3,21.8c-1.3,1-3,1.5-4.8,1.5c-4.5,0-8.2-3.7-8.2-8.2s3.7-8.2,8.2-8.2s8.2,3.7,8.2,8.2c0,2.3-0.9,4.3-2.4,5.8l5.8,5.8
			c0.3,0.3,0.3,0.7,0,1c-0.3,0.3-0.7,0.3-1,0L21.3,21.8z M16.6,22.3c4,0,7.2-3.2,7.2-7.2s-3.2-7.2-7.2-7.2s-7.2,3.2-7.2,7.2
			S12.6,22.3,16.6,22.3L16.6,22.3z"/>
		<path d="M75.7,9.7c-0.2-0.3-0.6-0.4-0.9-0.4H57.5l-0.2-1.5c-0.1-0.6-0.6-1-1.2-1h-2.8C52.6,6.8,52,7.3,52,8c0,0.7,0.6,1.2,1.2,1.2
			H55l2.3,13.9c0,0.1,0,0.1,0.1,0.2c0,0.1,0,0.1,0.1,0.2c0,0.1,0.1,0.2,0.1,0.2c0,0,0.1,0.1,0.1,0.1c0.1,0.1,0.2,0.1,0.2,0.2
			c0,0,0.1,0.1,0.1,0.1c0.1,0.1,0.3,0.1,0.5,0.1c0,0,13.7,0,13.7,0c0.7,0,1.2-0.6,1.2-1.2s-0.6-1.2-1.2-1.2H59.6l-0.2-1.2h14.1
			c0.6,0,1.1-0.5,1.2-1.1l1.2-8.7C76,10.3,75.9,10,75.7,9.7L75.7,9.7z M73.3,11.8L73,14.3h-4.4v-2.5H73.3z M67.3,11.8v2.5h-3.7v-2.5
			H67.3z M67.3,15.5V18h-3.7v-2.5H67.3z M62.3,11.8v2.5h-3.7c-0.1,0-0.1,0-0.2,0l-0.4-2.5H62.3z M58.6,15.5h3.7V18H59L58.6,15.5z
			 M68.5,18v-2.5h4.3L72.4,18H68.5z"/>
		<path d="M62.3,27.4c0,1-0.8,1.9-1.9,1.9s-1.9-0.8-1.9-1.9s0.8-1.9,1.9-1.9S62.3,26.3,62.3,27.4z"/>
		<path d="M73.5,27.4c0,1-0.8,1.9-1.9,1.9c-1,0-1.9-0.8-1.9-1.9s0.8-1.9,1.9-1.9C72.7,25.5,73.5,26.3,73.5,27.4z"/>
	</g>
</defs>
<use href="#ico" fill="#fff"/>
<use href="#ico" y="100" fill="#00698d"/>
</svg>
