<svg xmlns="http://www.w3.org/2000/svg" xmlns:xlink="http://www.w3.org/1999/xlink" width="300" height="300" viewBox="0 0 300 300">
<g fill="#fff">
	<path d="M75.4,12.5c-0.3-0.3-0.8-0.5-1.2-0.5h0l-16.5,0l-0.8-3c0,0,0,0,0,0c-0.3-1.1-0.9-2.2-2.4-2.2h-1.7c-0.4,0-0.7,0.3-0.7,0.7 s0.3,0.7,0.7,0.7h1.7c0.4,0,0.7,0.1,1.1,1.2l3,11.7c0,0,0,0,0,0c0.4,1.3,1.2,2.1,2.3,2.1h1.4V24c-1.2,0.3-2,1.4-2,2.6 c0,1.5,1.2,2.7,2.7,2.7c1.5,0,2.7-1.2,2.7-2.7c0-1.3-0.9-2.3-2-2.6v-0.8h7.5V24c-1.2,0.3-2,1.4-2,2.6c0,1.5,1.2,2.7,2.7,2.7 c1.5,0,2.7-1.2,2.7-2.7c0-1.3-0.9-2.3-2-2.6v-0.8h1c1.3,0,2.4-1.1,2.4-2.4v-7C75.9,13.3,75.8,12.8,75.4,12.5z M64.3,26.6 c0,0.7-0.6,1.3-1.3,1.3c-0.7,0-1.3-0.6-1.3-1.3c0-0.7,0.6-1.3,1.3-1.3C63.7,25.3,64.3,25.9,64.3,26.6z M73.1,26.6 c0,0.7-0.6,1.3-1.3,1.3c-0.7,0-1.3-0.6-1.3-1.3c0-0.7,0.6-1.3,1.3-1.3C72.5,25.3,73.1,25.9,73.1,26.6z M74.5,20.8c0,0.6-0.5,1-1,1 H60.8c-0.5,0-0.8-0.6-0.9-1.1L58,13.4l16.2,0h0c0.1,0,0.2,0,0.3,0.1c0,0,0.1,0.1,0.1,0.2V20.8z"/>
	<path d="M27.8,25.8l-4.9-5.2c1.3-1.5,1.9-3.4,1.9-5.4c0-4.7-3.7-8.4-8.3-8.4s-8.3,3.8-8.3,8.4s3.7,8.4,8.3,8.4 c1.7,0,3.3-0.5,4.7-1.5l4.9,5.2c0.2,0.2,0.5,0.3,0.8,0.3c0.3,0,0.5-0.1,0.7-0.3C28.2,27,28.2,26.3,27.8,25.8z M16.6,9 c3.4,0,6.1,2.8,6.1,6.2s-2.7,6.2-6.1,6.2s-6.1-2.8-6.1-6.2S13.2,9,16.6,9z"/>
</g>
<g transform="translate(0 100)" fill="#c00">
	<path d="M75.4,12.5c-0.3-0.3-0.8-0.5-1.2-0.5h0l-16.5,0l-0.8-3c0,0,0,0,0,0c-0.3-1.1-0.9-2.2-2.4-2.2h-1.7c-0.4,0-0.7,0.3-0.7,0.7 s0.3,0.7,0.7,0.7h1.7c0.4,0,0.7,0.1,1.1,1.2l3,11.7c0,0,0,0,0,0c0.4,1.3,1.2,2.1,2.3,2.1h1.4V24c-1.2,0.3-2,1.4-2,2.6 c0,1.5,1.2,2.7,2.7,2.7c1.5,0,2.7-1.2,2.7-2.7c0-1.3-0.9-2.3-2-2.6v-0.8h7.5V24c-1.2,0.3-2,1.4-2,2.6c0,1.5,1.2,2.7,2.7,2.7 c1.5,0,2.7-1.2,2.7-2.7c0-1.3-0.9-2.3-2-2.6v-0.8h1c1.3,0,2.4-1.1,2.4-2.4v-7C75.9,13.3,75.8,12.8,75.4,12.5z M64.3,26.6 c0,0.7-0.6,1.3-1.3,1.3c-0.7,0-1.3-0.6-1.3-1.3c0-0.7,0.6-1.3,1.3-1.3C63.7,25.3,64.3,25.9,64.3,26.6z M73.1,26.6 c0,0.7-0.6,1.3-1.3,1.3c-0.7,0-1.3-0.6-1.3-1.3c0-0.7,0.6-1.3,1.3-1.3C72.5,25.3,73.1,25.9,73.1,26.6z M74.5,20.8c0,0.6-0.5,1-1,1 H60.8c-0.5,0-0.8-0.6-0.9-1.1L58,13.4l16.2,0h0c0.1,0,0.2,0,0.3,0.1c0,0,0.1,0.1,0.1,0.2V20.8z"/>
	<path d="M27.8,25.8l-4.9-5.2c1.3-1.5,1.9-3.4,1.9-5.4c0-4.7-3.7-8.4-8.3-8.4s-8.3,3.8-8.3,8.4s3.7,8.4,8.3,8.4 c1.7,0,3.3-0.5,4.7-1.5l4.9,5.2c0.2,0.2,0.5,0.3,0.8,0.3c0.3,0,0.5-0.1,0.7-0.3C28.2,27,28.2,26.3,27.8,25.8z M16.6,9 c3.4,0,6.1,2.8,6.1,6.2s-2.7,6.2-6.1,6.2s-6.1-2.8-6.1-6.2S13.2,9,16.6,9z"/>
</g>
<g fill="#676767" stroke="#000" stroke-width=".5">
	<line x1="85" y1="18" x2="100" y2="18"/>
	<line x1="100" y1="18" x2="95" y2="13"/>
	<line x1="100" y1="18" x2="95" y2="23"/>
</g>
<path fill="#a2a2a2" d="M19,42.5c-6.9,0-12.5,5.6-12.5,12.5S12.1,67.5,19,67.5S31.5,61.9,31.5,55S25.9,42.5,19,42.5z M19,65c-5.5,0-10-4.5-10-10 s4.5-10,10-10s10,4.5,10,10S24.5,65,19,65z M14,56.3h10v-2.5H14V56.3z"/>
<path fill="#c00" d="M63.9,52.6l-1.8,1.8l5.6,5.6l12.5-12.5l-1.8-1.8L67.8,56.5L63.9,52.6z M79,55c0,5.5-4.5,10-10,10s-10-4.5-10-10 s4.5-10,10-10c1,0,1.9,0.1,2.8,0.4l2-2c-1.5-0.5-3.1-0.9-4.8-0.9c-6.9,0-12.5,5.6-12.5,12.5S62.1,67.5,69,67.5S81.5,61.9,81.5,55 H79z"/>
</svg>